<svg xmlns="http://www.w3.org/2000/svg" width="1200" height="620" viewBox="0 0 1200 620">
  <rect width="1200" height="620" fill="#eef6ff"/>
  <text x="600" y="58" text-anchor="middle" font-family="Arial, sans-serif" font-size="34" font-weight="700" fill="#304466">Model Comparison</text>
  <text x="600" y="92" text-anchor="middle" font-family="Arial, sans-serif" font-size="16" fill="#52667f">DOM XSS classification results from the project presentation</text>
  <rect x="55" y="125" width="1090" height="430" rx="12" fill="#ffffff" stroke="#c8d6e5"/>
  <g font-family="Arial, sans-serif" font-size="19" fill="#111827">
    <rect x="55" y="125" width="1090" height="48" rx="12" fill="#dcecff"/>
    <text x="82" y="156" font-weight="700">Model</text>
    <text x="325" y="156" font-weight="700">Accuracy</text>
    <text x="475" y="156" font-weight="700">Precision</text>
    <text x="635" y="156" font-weight="700">Recall</text>
    <text x="775" y="156" font-weight="700">FN</text>
    <text x="900" y="156" font-weight="700">FP</text>
    <text x="1015" y="156" font-weight="700">Notes</text>

    <line x1="55" y1="173" x2="1145" y2="173" stroke="#c8d6e5"/>
    <line x1="300" y1="125" x2="300" y2="555" stroke="#e5edf5"/>
    <line x1="450" y1="125" x2="450" y2="555" stroke="#e5edf5"/>
    <line x1="610" y1="125" x2="610" y2="555" stroke="#e5edf5"/>
    <line x1="750" y1="125" x2="750" y2="555" stroke="#e5edf5"/>
    <line x1="875" y1="125" x2="875" y2="555" stroke="#e5edf5"/>
    <line x1="995" y1="125" x2="995" y2="555" stroke="#e5edf5"/>

    <g>
      <text x="82" y="211">LightGBM</text><text x="335" y="211">0.9614</text><text x="490" y="211">0.9970</text><text x="645" y="211">0.9165</text><text x="785" y="211">313</text><text x="910" y="211">15</text><text x="1015" y="211">High precision</text>
      <line x1="55" y1="231" x2="1145" y2="231" stroke="#e5edf5"/>
      <text x="82" y="269">XGBoost</text><text x="335" y="269">0.9612</text><text x="490" y="269">0.9965</text><text x="645" y="269">0.9165</text><text x="785" y="269">313</text><text x="910" y="269">14</text><text x="1015" y="269">Strong baseline</text>
      <line x1="55" y1="289" x2="1145" y2="289" stroke="#e5edf5"/>
      <text x="82" y="327">Random Forest</text><text x="335" y="327">0.9619</text><text x="490" y="327">0.9987</text><text x="645" y="327">0.9160</text><text x="785" y="327">340</text><text x="910" y="327">5</text><text x="1015" y="327">Lowest FP</text>
      <line x1="55" y1="347" x2="1145" y2="347" stroke="#e5edf5"/>
      <text x="82" y="385">Decision Tree</text><text x="335" y="385">0.9611</text><text x="490" y="385">0.9968</text><text x="645" y="385">0.9160</text><text x="785" y="385">340</text><text x="910" y="385">12</text><text x="1015" y="385">Interpretable</text>
      <line x1="55" y1="405" x2="1145" y2="405" stroke="#e5edf5"/>
      <text x="82" y="443">AdaBoost</text><text x="335" y="443">0.9613</text><text x="490" y="443">0.9968</text><text x="645" y="443">0.9165</text><text x="785" y="443">338</text><text x="910" y="443">12</text><text x="1015" y="443">Consistent</text>
      <line x1="55" y1="463" x2="1145" y2="463" stroke="#e5edf5"/>
      <text x="82" y="501">Naive Bayes</text><text x="335" y="501">0.7450</text><text x="490" y="501">0.7987</text><text x="645" y="501">0.5751</text><text x="785" y="501">1721</text><text x="910" y="501">587</text><text x="1015" y="501">Weakest</text>
      <line x1="55" y1="521" x2="1145" y2="521" stroke="#e5edf5"/>
      <text x="82" y="542">MLP</text><text x="335" y="542">0.9600</text><text x="490" y="542">0.9800</text><text x="645" y="542">0.9300</text><text x="785" y="542">70</text><text x="910" y="542">23</text><text x="1015" y="542">Best recall</text>
    </g>
  </g>
</svg>
