<svg xmlns="http://www.w3.org/2000/svg" width="900" height="620" viewBox="0 0 900 620">
  <rect width="900" height="620" fill="#eef6ff"/>
  <text x="450" y="58" text-anchor="middle" font-family="Arial, sans-serif" font-size="32" font-weight="700" fill="#304466">RF and MLP Shared Features</text>
  <text x="450" y="92" text-anchor="middle" font-family="Arial, sans-serif" font-size="16" fill="#52667f">Important feature intersection from Random Forest and MLP analysis</text>
  <rect x="190" y="125" width="520" height="405" rx="12" fill="#ffffff" stroke="#c8d6e5"/>
  <rect x="190" y="125" width="520" height="50" rx="12" fill="#dcecff"/>
  <g font-family="Arial, sans-serif" font-size="25" fill="#111827">
    <text x="230" y="158" font-weight="700">Meaning</text>
    <text x="525" y="158" font-weight="700">Feature</text>
    <line x1="190" y1="175" x2="710" y2="175" stroke="#c8d6e5"/>
    <line x1="490" y1="125" x2="490" y2="530" stroke="#e5edf5"/>
    <text x="230" y="222">innerhtml</text><text x="525" y="222">feat_70</text>
    <line x1="190" y1="245" x2="710" y2="245" stroke="#e5edf5"/>
    <text x="230" y="292">write</text><text x="525" y="292">feat_371</text>
    <line x1="190" y1="315" x2="710" y2="315" stroke="#e5edf5"/>
    <text x="230" y="362">and</text><text x="525" y="362">feat_2</text>
    <line x1="190" y1="385" x2="710" y2="385" stroke="#e5edf5"/>
    <text x="230" y="432">assign</text><text x="525" y="432">feat_0</text>
    <line x1="190" y1="455" x2="710" y2="455" stroke="#e5edf5"/>
    <text x="230" y="502">appendch</text><text x="525" y="502">feat_67</text>
  </g>
  <text x="450" y="570" text-anchor="middle" font-family="Arial, sans-serif" font-size="15" fill="#52667f">These shared features appeared as important indicators across both models.</text>
</svg>
